<svg data-v-423bf9ae="" xmlns="http://www.w3.org/2000/svg" viewBox="0 0 598 90" class="iconLeft"><!----><!----><!----><g data-v-423bf9ae="" id="445be6ec-d3de-4c66-b764-440208981f45" fill="#2e3034" transform="matrix(6.12870278179688,0,0,6.12870278179688,141.3788113454271,-3.079674690633013)"><path d="M3.05 12.74L3.05 12.74Q2.35 12.74 1.76 12.49L1.76 12.49L1.76 12.49Q1.17 12.23 0.76 11.80L0.76 11.80L0.76 11.80Q0.36 11.36 0.18 10.83L0.18 10.83L1.51 10.24L1.51 10.24Q1.69 10.72 2.02 11.04L2.02 11.04L2.02 11.04Q2.36 11.36 2.97 11.36L2.97 11.36L2.97 11.36Q3.33 11.36 3.58 11.24L3.58 11.24L3.58 11.24Q3.83 11.12 3.95 10.93L3.95 10.93L3.95 10.93Q4.07 10.74 4.07 10.55L4.07 10.55L4.07 10.55Q4.07 10.33 3.91 10.19L3.91 10.19L3.91 10.19Q3.75 10.04 3.51 9.96L3.51 9.96L3.51 9.96Q3.27 9.87 2.82 9.75L2.82 9.75L2.82 9.75Q2.15 9.58 1.71 9.39L1.71 9.39L1.71 9.39Q1.28 9.21 0.96 8.81L0.96 8.81L0.96 8.81Q0.64 8.42 0.64 7.76L0.64 7.76L0.64 7.76Q0.64 7.07 0.99 6.59L0.99 6.59L0.99 6.59Q1.34 6.11 1.92 5.87L1.92 5.87L1.92 5.87Q2.50 5.63 3.18 5.63L3.18 5.63L3.18 5.63Q4.05 5.63 4.71 6.02L4.71 6.02L4.71 6.02Q5.37 6.41 5.77 7.12L5.77 7.12L4.48 7.82L4.48 7.82Q4.27 7.44 3.95 7.19L3.95 7.19L3.95 7.19Q3.63 6.95 3.12 6.95L3.12 6.95L3.12 6.95Q2.73 6.95 2.48 7.12L2.48 7.12L2.48 7.12Q2.24 7.29 2.24 7.54L2.24 7.54L2.24 7.54Q2.24 7.73 2.39 7.86L2.39 7.86L2.39 7.86Q2.54 7.99 2.77 8.07L2.77 8.07L2.77 8.07Q3.00 8.16 3.42 8.28L3.42 8.28L3.42 8.28Q4.12 8.48 4.58 8.69L4.58 8.69L4.58 8.69Q5.04 8.89 5.38 9.32L5.38 9.32L5.38 9.32Q5.71 9.75 5.71 10.47L5.71 10.47L5.71 10.47Q5.71 11.22 5.33 11.73L5.33 11.73L5.33 11.73Q4.95 12.24 4.34 12.49L4.34 12.49L4.34 12.49Q3.73 12.74 3.05 12.74L3.05 12.74ZM9.07 12.74L9.07 12.74Q8.37 12.74 7.80 12.48L7.80 12.48L7.80 12.48Q7.24 12.22 6.91 11.71L6.91 11.71L6.91 11.71Q6.59 11.20 6.59 10.51L6.59 10.51L6.59 10.51Q6.59 9.46 7.32 9.00L7.32 9.00L7.32 9.00Q8.06 8.53 9.31 8.53L9.31 8.53L11.09 8.53L11.09 8.53Q11.09 7.87 10.74 7.48L10.74 7.48L10.74 7.48Q10.39 7.09 9.74 7.09L9.74 7.09L9.74 7.09Q9.19 7.09 8.79 7.36L8.79 7.36L8.79 7.36Q8.38 7.63 8.13 8.05L8.13 8.05L6.86 7.13L6.86 7.13Q7.38 6.41 8.08 6.02L8.08 6.02L8.08 6.02Q8.77 5.63 9.73 5.63L9.73 5.63L9.73 5.63Q10.64 5.63 11.31 5.99L11.31 5.99L11.31 5.99Q11.98 6.34 12.33 6.99L12.33 6.99L12.33 6.99Q12.68 7.63 12.68 8.46L12.68 8.46L12.68 12.61L11.31 12.61L11.20 11.63L11.20 11.63Q10.78 12.24 10.25 12.49L10.25 12.49L10.25 12.49Q9.73 12.74 9.07 12.74L9.07 12.74ZM9.31 11.33L9.31 11.33Q9.78 11.33 10.18 11.11L10.18 11.11L10.18 11.11Q10.58 10.89 10.83 10.52L10.83 10.52L10.83 10.52Q11.07 10.16 11.09 9.73L11.09 9.73L9.41 9.73L9.41 9.73Q8.87 9.73 8.58 9.97L8.58 9.97L8.58 9.97Q8.30 10.21 8.30 10.56L8.30 10.56L8.30 10.56Q8.30 10.91 8.57 11.12L8.57 11.12L8.57 11.12Q8.83 11.33 9.31 11.33L9.31 11.33ZM17.17 12.74L17.17 12.74Q16.10 12.74 15.35 12.25L15.35 12.25L15.35 12.25Q14.60 11.76 14.23 10.95L14.23 10.95L14.23 10.95Q13.86 10.14 13.86 9.20L13.86 9.20L13.86 9.20Q13.86 8.27 14.23 7.45L14.23 7.45L14.23 7.45Q14.60 6.64 15.34 6.14L15.34 6.14L15.34 6.14Q16.08 5.63 17.15 5.63L17.15 5.63L17.15 5.63Q18.19 5.63 18.96 6.14L18.96 6.14L18.96 6.14Q19.72 6.65 20.10 7.65L20.10 7.65L18.52 8.26L18.52 8.26Q18.38 7.76 18.02 7.45L18.02 7.45L18.02 7.45Q17.65 7.14 17.15 7.14L17.15 7.14L17.15 7.14Q16.60 7.14 16.25 7.43L16.25 7.43L16.25 7.43Q15.89 7.72 15.72 8.19L15.72 8.19L15.72 8.19Q15.55 8.66 15.55 9.20L15.55 9.20L15.55 9.20Q15.55 9.75 15.72 10.21L15.72 10.21L15.72 10.21Q15.88 10.67 16.24 10.95L16.24 10.95L16.24 10.95Q16.60 11.23 17.15 11.23L17.15 11.23L17.15 11.23Q17.64 11.23 18.01 10.93L18.01 10.93L18.01 10.93Q18.38 10.64 18.52 10.14L18.52 10.14L20.04 10.72L20.04 10.72Q19.69 11.68 18.94 12.21L18.94 12.21L18.94 12.21Q18.18 12.74 17.17 12.74L17.17 12.74ZM21.33 12.61L21.33 2.95L23.03 2.95L23.03 6.57L23.03 6.57Q23.42 6.09 23.94 5.86L23.94 5.86L23.94 5.86Q24.47 5.63 25.01 5.63L25.01 5.63L25.01 5.63Q25.86 5.63 26.43 6.04L26.43 6.04L26.43 6.04Q27.00 6.44 27.26 7.09L27.26 7.09L27.26 7.09Q27.53 7.75 27.53 8.50L27.53 8.50L27.53 12.61L25.83 12.61L25.83 8.72L25.83 8.72Q25.83 7.99 25.57 7.57L25.57 7.57L25.57 7.57Q25.30 7.14 24.60 7.14L24.60 7.14L24.60 7.14Q23.83 7.14 23.43 7.70L23.43 7.70L23.43 7.70Q23.03 8.25 23.03 9.15L23.03 9.15L23.03 12.61L21.33 12.61ZM31.60 12.74L31.60 12.74Q30.34 12.74 29.72 11.85L29.72 11.85L29.72 11.85Q29.11 10.96 29.11 9.37L29.11 9.37L29.11 5.78L30.80 5.78L30.80 9.43L30.80 9.43Q30.80 10.03 30.90 10.42L30.90 10.42L30.90 10.42Q31.00 10.81 31.27 11.02L31.27 11.02L31.27 11.02Q31.54 11.23 32.03 11.23L32.03 11.23L32.03 11.23Q32.73 11.23 33.17 10.72L33.17 10.72L33.17 10.72Q33.61 10.20 33.61 8.85L33.61 8.85L33.61 5.78L35.31 5.78L35.31 12.61L33.61 12.61L33.61 11.81L33.61 11.81Q33.25 12.28 32.73 12.51L32.73 12.51L32.73 12.51Q32.22 12.74 31.60 12.74L31.60 12.74ZM39.03 12.61L36.24 5.78L38.06 5.78L39.72 10.45L41.38 5.78L43.19 5.78L40.40 12.61L39.03 12.61ZM46.96 12.74L46.96 12.74Q45.83 12.74 45.06 12.26L45.06 12.26L45.06 12.26Q44.28 11.77 43.89 10.97L43.89 10.97L43.89 10.97Q43.50 10.17 43.50 9.21L43.50 9.21L43.50 9.21Q43.50 8.29 43.87 7.46L43.87 7.46L43.87 7.46Q44.24 6.64 45.00 6.14L45.00 6.14L45.00 6.14Q45.75 5.63 46.85 5.63L46.85 5.63L46.85 5.63Q47.97 5.63 48.69 6.15L48.69 6.15L48.69 6.15Q49.40 6.67 49.71 7.45L49.71 7.45L49.71 7.45Q50.02 8.23 50.02 9.08L50.02 9.08L50.02 9.08Q50.02 9.28 50.00 9.47L50.00 9.47L50.00 9.47Q49.98 9.66 49.96 9.73L49.96 9.73L45.27 9.73L45.27 9.73Q45.51 11.23 46.98 11.23L46.98 11.23L46.98 11.23Q47.46 11.23 47.87 11.06L47.87 11.06L47.87 11.06Q48.27 10.89 48.62 10.51L48.62 10.51L49.77 11.51L49.77 11.51Q49.21 12.13 48.51 12.44L48.51 12.44L48.51 12.44Q47.82 12.74 46.96 12.74L46.96 12.74ZM45.27 8.53L48.38 8.53L48.38 8.53Q48.30 7.81 47.90 7.42L47.90 7.42L47.90 7.42Q47.50 7.03 46.84 7.03L46.84 7.03L46.84 7.03Q45.54 7.03 45.27 8.53L45.27 8.53ZM51.41 12.61L51.41 5.78L53.04 5.78L53.04 6.92L53.04 6.92Q53.25 6.32 53.76 5.98L53.76 5.98L53.76 5.98Q54.28 5.63 54.87 5.63L54.87 5.63L54.87 5.63Q55.22 5.63 55.55 5.76L55.55 5.76L55.55 5.76Q55.88 5.88 56.12 6.13L56.12 6.13L55.36 7.49L55.36 7.49Q55.02 7.26 54.62 7.26L54.62 7.26L54.62 7.26Q54.21 7.26 53.84 7.52L53.84 7.52L53.84 7.52Q53.48 7.79 53.25 8.34L53.25 8.34L53.25 8.34Q53.03 8.89 53.03 9.72L53.03 9.72L53.03 12.61L51.41 12.61ZM56.98 12.61L56.98 5.78L58.67 5.78L58.67 6.49L58.67 6.49Q58.99 6.05 59.44 5.84L59.44 5.84L59.44 5.84Q59.89 5.63 60.40 5.63L60.40 5.63L60.40 5.63Q61.65 5.63 62.32 6.84L62.32 6.84L62.32 6.84Q62.71 6.23 63.30 5.93L63.30 5.93L63.30 5.93Q63.90 5.63 64.59 5.63L64.59 5.63L64.59 5.63Q65.42 5.63 65.99 6.04L65.99 6.04L65.99 6.04Q66.55 6.44 66.83 7.09L66.83 7.09L66.83 7.09Q67.11 7.75 67.11 8.50L67.11 8.50L67.11 12.61L65.41 12.61L65.41 8.72L65.41 8.72Q65.41 8.01 65.16 7.60L65.16 7.60L65.16 7.60Q64.91 7.18 64.31 7.18L64.31 7.18L64.31 7.18Q63.88 7.18 63.55 7.41L63.55 7.41L63.55 7.41Q63.23 7.63 63.05 8.01L63.05 8.01L63.05 8.01Q62.88 8.39 62.88 8.85L62.88 8.85L62.88 12.61L61.19 12.61L61.19 8.69L61.19 8.69Q61.19 7.99 60.95 7.59L60.95 7.59L60.95 7.59Q60.70 7.18 60.11 7.18L60.11 7.18L60.11 7.18Q59.66 7.18 59.34 7.41L59.34 7.41L59.34 7.41Q59.01 7.63 58.84 8.01L58.84 8.01L58.84 8.01Q58.67 8.39 58.67 8.85L58.67 8.85L58.67 12.61L56.98 12.61ZM70.77 12.74L70.77 12.74Q70.06 12.74 69.50 12.48L69.50 12.48L69.50 12.48Q68.93 12.22 68.61 11.71L68.61 11.71L68.61 11.71Q68.28 11.20 68.28 10.51L68.28 10.51L68.28 10.51Q68.28 9.46 69.02 9.00L69.02 9.00L69.02 9.00Q69.75 8.53 71.00 8.53L71.00 8.53L72.78 8.53L72.78 8.53Q72.78 7.87 72.43 7.48L72.43 7.48L72.43 7.48Q72.08 7.09 71.44 7.09L71.44 7.09L71.44 7.09Q70.89 7.09 70.48 7.36L70.48 7.36L70.48 7.36Q70.08 7.63 69.83 8.05L69.83 8.05L68.55 7.13L68.55 7.13Q69.08 6.41 69.77 6.02L69.77 6.02L69.77 6.02Q70.46 5.63 71.42 5.63L71.42 5.63L71.42 5.63Q72.34 5.63 73.00 5.99L73.00 5.99L73.00 5.99Q73.67 6.34 74.02 6.99L74.02 6.99L74.02 6.99Q74.38 7.63 74.38 8.46L74.38 8.46L74.38 12.61L73.00 12.61L72.89 11.63L72.89 11.63Q72.47 12.24 71.95 12.49L71.95 12.49L71.95 12.49Q71.42 12.74 70.77 12.74L70.77 12.74ZM71.00 11.33L71.00 11.33Q71.47 11.33 71.87 11.11L71.87 11.11L71.87 11.11Q72.28 10.89 72.52 10.52L72.52 10.52L72.52 10.52Q72.77 10.16 72.78 9.73L72.78 9.73L71.10 9.73L71.10 9.73Q70.56 9.73 70.28 9.97L70.28 9.97L70.28 9.97Q69.99 10.21 69.99 10.56L69.99 10.56L69.99 10.56Q69.99 10.91 70.26 11.12L70.26 11.12L70.26 11.12Q70.53 11.33 71.00 11.33L71.00 11.33Z"></path></g><!----><g data-v-423bf9ae="" id="e85de60d-3c81-4018-9630-ac53c93a889f" transform="matrix(1.3609168117494626,0,0,1.3609168117494626,-6.045592515264502,-22.111805910929604)" stroke="none" fill="#488eff"><g clip-rule="evenodd"><path d="M87.878 33.945c-9.211-.257-11.967 5.948-14.593 12.28-13.897-2.918-32.945-2.968-46.631.179-2.602-6.417-5.317-12.724-14.594-12.459.872-8.813 5.602-15.855 14.949-16.734 6.664-.623 14.874 0 22.962 0 7.988 0 16.198-.547 22.778 0 9.674.81 14.364 8.228 15.129 16.734z"></path><path d="M24.518 52.099c14.232-4.839 36.581-5.108 50.725 0 2.914-3.996 2.379-8.386 5.875-11.75 6.182-5.946 17.384 1.417 12.814 9.791-1.07 1.955-2.862 2.883-4.985 4.093-1.356 4.126-.111 9.34-1.78 13.53-1.087 2.716-4.895 4.505-8.72 4.805-8.305.646-18.488 0-28.303 0-10.116 0-19.49.59-28.297 0-4.132-.278-8.056-2.208-9.079-4.805-1.523-3.881-.642-9.323-1.601-13.349C6.665 52.466 3.599 47.97 5.65 43.02c.819-1.973 3.489-4.505 6.587-4.805 8.953-.865 8.944 8.664 12.281 13.884zM22.558 83.066h-4.804c-3.267-.59-2.948-4.761-2.848-8.72 2.364 1.73 6.338 1.85 10.502 1.781.276 3.538-.091 6.435-2.85 6.939zM82.184 83.066h-4.805c-2.708-.38-3.342-3.773-2.669-6.939 4.099.239 8.236-.428 10.324-1.604.119 3.918.358 7.957-2.85 8.543z"></path></g></g><!----></svg>